<?xml version="1.0" encoding="iso-8859-1"?>
<!-- Generator: Adobe Illustrator 22.0.1, SVG Export Plug-In . SVG Version: 6.00 Build 0)  -->
<svg version="1.1" xmlns="http://www.w3.org/2000/svg" xmlns:xlink="http://www.w3.org/1999/xlink" x="0px" y="0px"
	 viewBox="0 0 64 64" style="enable-background:new 0 0 64 64;" xml:space="preserve">
<g id="_x32_">
	<path style="fill:#AAD15D;" d="M61.651,34.332c-5.422,11.14-19.194,14.467-26.046,13.401c6.769-4.825,16.245-9.204,16.245-9.204
		s-9.227,2.405-17.046,7.911c0.923-2.322,3.343-6.489,7.548-9.544C47.758,32.963,54.247,32.101,61.651,34.332z"/>
	<path style="fill:#90B74B;" d="M33.525,42.613c0.038,1.308-0.098,2.337-0.295,3.131c-0.008,0.015-0.015,0.03-0.015,0.045
		C24.851,28.13,9.242,21.815,8.758,21.626c0.537,0.318,14.256,8.553,22.34,25.781c-0.287,0.008,0,0-0.348-0.015
		C24.964,47.12,10.951,43.407,0,16.113c9.06-0.401,18.234,2.76,24.79,8.599C30.319,29.635,33.336,35.821,33.525,42.613z"/>
	<path style="display:none;fill:#232323;" d="M27.133,24.678c-6.017-5.364-14.556-8.119-22.842-7.386l-1.227,0.111l0.444,1.141
		c10.253,26.572,24.383,28.039,28.464,27.86l0.24-0.012c0,0,0.869-0.395,1.171-0.709l0.586-0.358l0.117-0.259
		c0.395-0.838,0.845-2.293,0.789-4.464C34.71,34.634,31.96,28.975,27.133,24.678z M32.786,43.204c0,0.006-0.006,0.006,0,0.012
		c-0.006,0.025-0.012,0.062-0.025,0.08c0-0.012,0.006-0.031,0.012-0.055c-6.701-14.143-19.099-19.358-19.907-19.679
		c0.758,0.45,11.695,7.176,18.181,20.998c-0.234,0.006,0,0-0.284-0.012c-4.716-0.222-16.14-3.249-25.067-25.499
		c7.386-0.327,14.864,2.25,20.209,7.01c4.507,4.013,6.967,9.057,7.121,14.593C33.057,41.718,32.946,42.556,32.786,43.204z
		 M63.069,32.458c-9.79-3.335-16.27-0.025-19.981,3.335c-3.73,3.372-5.69,7.75-5.678,9.334c0.012,0.228,0.037,0.863,0.672,1.042
		c0.012,0.006,0.025,0.012,0.037,0.018c2.232,0.814,6.375,0.888,10.77-0.308c5.709-1.547,11.837-5.228,14.735-12.188L64,32.779
		L63.069,32.458z M40.27,44.825c5.518-3.933,13.243-7.503,13.243-7.503s-7.521,1.961-13.896,6.449
		c0.752-1.893,2.725-5.29,6.153-7.78c4.408-3.206,9.698-3.909,15.733-2.09C57.083,42.982,45.856,45.695,40.27,44.825z"/>
</g>
<g id="Layer_1">
</g>
</svg>
