<svg width="106" height="47" viewBox="0 0 106 47" fill="none" xmlns="http://www.w3.org/2000/svg">
<rect width="106" height="47" fill="#E9F5C6"/>
<path d="M32.14 33V25.244H23.684V33H19.624V13.68H23.684V21.38H32.14V13.68H36.228V33H32.14ZM44.7676 27.428C43.2276 27.428 42.5276 27.96 42.5276 28.744C42.5276 29.556 43.4236 30.004 44.7956 30.004C46.5876 30.004 47.8196 29.276 47.8196 27.652V27.428H44.7676ZM38.6356 28.94C38.6356 26.224 40.7636 24.376 44.7116 24.376H47.8196V24.096C47.8196 22.696 46.8396 21.884 45.4116 21.884C44.1796 21.884 43.4236 22.416 43.1156 23.284H39.1676C39.6436 20.148 42.4716 18.692 45.4396 18.692C49.5276 18.692 51.5996 21.044 51.5996 24.096V33H48.0716V31.292C47.4556 32.384 46.0556 33.308 43.7876 33.308C41.1556 33.308 38.6356 32.104 38.6356 28.94ZM55.2199 19.084C55.2199 15.5 57.2079 13.68 60.4279 13.68H62.4159V17.152H60.8479C59.3359 17.152 59.0559 17.684 59.0559 18.804V19.112H62.3599V22.388H59.0559V33H55.2199V22.388H53.0919V19.112H55.2199V19.084ZM65.4738 19.084C65.4738 15.5 67.4618 13.68 70.6818 13.68H72.6698V17.152H71.1018C69.5898 17.152 69.3098 17.684 69.3098 18.804V19.112H72.6138V22.388H69.3098V33H65.4738V22.388H63.3458V19.112H65.4738V19.084ZM79.7676 27.428C78.2276 27.428 77.5276 27.96 77.5276 28.744C77.5276 29.556 78.4236 30.004 79.7956 30.004C81.5876 30.004 82.8196 29.276 82.8196 27.652V27.428H79.7676ZM73.6356 28.94C73.6356 26.224 75.7636 24.376 79.7116 24.376H82.8196V24.096C82.8196 22.696 81.8396 21.884 80.4116 21.884C79.1796 21.884 78.4236 22.416 78.1156 23.284H74.1676C74.6436 20.148 77.4716 18.692 80.4396 18.692C84.5276 18.692 86.5996 21.044 86.5996 24.096V33H83.0716V31.292C82.4556 32.384 81.0556 33.308 78.7876 33.308C76.1556 33.308 73.6356 32.104 73.6356 28.94Z" fill="#00843D"/>
</svg>
